<?xml version="1.0" encoding="UTF-8"?>
<svg id="Layer_1" data-name="Layer 1" xmlns="http://www.w3.org/2000/svg" viewBox="0 0 158.67 37.66">
  <defs>
    <style>
      .cls-1 {
        fill: #199f94;
      }

      .cls-1, .cls-2 {
        stroke-width: 0px;
      }

      .cls-2 {
        fill: #003a3f;
      }
    </style>
  </defs>
  <g>
    <path class="cls-2" d="m56.19,28.27l-5.25-20.14v-.39h5.25l3.36,14.61h.16l3.32-14.61h6.79l3.32,14.61h.16l3.4-14.61h5.17v.39l-5.21,20.14h-6.71l-3.4-14.57h-.16l-3.47,14.57h-6.71Z"/>
    <path class="cls-2" d="m85.2,5.01V0h5.42v5.01h-5.42Zm0,23.25V7.79h5.42v20.48h-5.42Z"/>
    <path class="cls-2" d="m104.36,37.66c-2.71,0-4.9-.68-6.57-2.03-1.67-1.36-2.53-3.14-2.59-5.35h5.17c.08.82.47,1.49,1.18,2.03.71.54,1.65.81,2.8.81,1.47,0,2.59-.36,3.36-1.09.76-.72,1.15-1.67,1.15-2.82v-3.16h-.16c-1.32,1.71-3.2,2.57-5.65,2.57-2.63,0-4.7-.99-6.2-2.96-1.5-1.97-2.25-4.51-2.25-7.62s.76-5.76,2.27-7.72c1.51-1.96,3.57-2.94,6.18-2.94,2.45,0,4.33.86,5.65,2.57h.16l.55-2.21h4.74v21.56c0,2.5-.91,4.52-2.72,6.06-1.82,1.54-4.17,2.31-7.07,2.31Zm-3.3-15.34c.72,1.09,1.88,1.64,3.46,1.64s2.73-.55,3.46-1.64c.72-1.09,1.09-2.52,1.09-4.28s-.37-3.2-1.11-4.32c-.74-1.12-1.88-1.68-3.44-1.68s-2.7.56-3.44,1.68c-.74,1.12-1.11,2.56-1.11,4.32s.36,3.19,1.09,4.28Z"/>
    <path class="cls-2" d="m127.18,37.66c-2.71,0-4.9-.68-6.57-2.03-1.67-1.36-2.53-3.14-2.59-5.35h5.17c.08.82.47,1.49,1.18,2.03.71.54,1.65.81,2.8.81,1.47,0,2.59-.36,3.36-1.09.76-.72,1.15-1.67,1.15-2.82v-3.16h-.16c-1.32,1.71-3.2,2.57-5.65,2.57-2.63,0-4.7-.99-6.2-2.96-1.5-1.97-2.25-4.51-2.25-7.62s.76-5.76,2.27-7.72c1.51-1.96,3.57-2.94,6.18-2.94,2.45,0,4.33.86,5.65,2.57h.16l.55-2.21h4.74v21.56c0,2.5-.91,4.52-2.72,6.06s-4.17,2.31-7.07,2.31Zm-3.3-15.34c.72,1.09,1.88,1.64,3.46,1.64s2.73-.55,3.46-1.64c.72-1.09,1.09-2.52,1.09-4.28s-.37-3.2-1.11-4.32c-.74-1.12-1.88-1.68-3.44-1.68s-2.7.56-3.44,1.68c-.74,1.12-1.11,2.56-1.11,4.32s.36,3.19,1.09,4.28Z"/>
    <path class="cls-2" d="m141.82,28.27V0h5.42v28.27h-5.42Z"/>
    <path class="cls-2" d="m152.79,5.01V0h5.42v5.01h-5.42Zm0,23.25V7.79h5.42v20.48h-5.42Z"/>
  </g>
  <g>
    <path class="cls-1" d="m33.5,2.51s9.23-.7,11.21,7.18c1.15,5.96-6.22,12.5-6.22,12.5,0,0-1.99-7.88-5-7.37V2.51Z"/>
    <path class="cls-1" d="m16.97,2.49s8.91-.95,14.16,9.44c1.86,4.04,3.59,11.73,5.51,12.3l-8.84,8.65s-2.95-1.41-5.77-10.64c-2.44-8.14-5.06-7.56-5.06-7.56V2.49Z"/>
    <path class="cls-1" d="m.5,2.49s8.91-.95,14.16,9.44c1.86,4.04,3.59,11.73,5.51,12.3l-8.84,8.65s-2.95-1.41-5.77-10.64C3.13,14.11.5,14.69.5,14.69V2.49Z"/>
  </g>
</svg>